<svg
        width="mm"
        height="mm"
        viewBox="0 0  "
        version="1.1"
        xmlns="http://www.w3.org/2000/svg"
        xmlns:xlink="http://www.w3.org/1999/xlink"
      >
<style>

      text {
        user-select: none;
      }
    
</style>

        <defs>
          <path
            id="f"
            d="m317 74c-3.866 0-7-3.134-7-7s3.134-7 7-7 7 3.134 7 7-3.134 7-7 7zm0 25c-3.866 0-7-3.134-7-7s3.134-7 7-7 7 3.134 7 7-3.134 7-7 7zm0 24c-3.866 0-7-3.134-7-7s3.134-7 7-7 7 3.134 7 7-3.134 7-7 7zm0 23c-3.866 0-7-3.134-7-7s3.134-7 7-7 7 3.134 7 7-3.134 7-7 7zm0 24c-3.866 0-7-3.134-7-7s3.134-7 7-7 7 3.134 7 7-3.134 7-7 7zm0-120c-3.866 0-7-3.134-7-7s3.134-7 7-7 7 3.134 7 7-3.134 7-7 7zm-298 98c-3.866 0-7-3.134-7-7s3.134-7 7-7 7 3.134 7 7-3.134 7-7 7zm0-24c-3.866 0-7-3.134-7-7s3.134-7 7-7 7 3.134 7 7-3.134 7-7 7zm0-25c-3.866 0-7-3.134-7-7s3.134-7 7-7 7 3.134 7 7-3.134 7-7 7zm0-24c-3.866 0-7-3.134-7-7s3.134-7 7-7 7 3.134 7 7-3.134 7-7 7zm9.5 115c-6.3513 0-11.5-5.1487-11.5-11.5s5.1487-11.5 11.5-11.5 11.5 5.1487 11.5 11.5-5.1487 11.5-11.5 11.5zm0-156c-6.3513 0-11.5-5.1487-11.5-11.5s5.1487-11.5 11.5-11.5 11.5 5.1487 11.5 11.5-5.1487 11.5-11.5 11.5zm-28.5-34h340v200h-340v-200z"
          />
          <path id="d" d="m0 0h340v200h-340v-200z" />
          <mask id="g" x="0" y="0" width="340" height="200" fill="white">
            <use xlink:href="#d" />
          </mask>
          <linearGradient id="a" y1="50%" y2="50%">
            <stop stop-color="#767676" offset="0" />
            <stop stop-color="#FFFEDF" offset="1" />
          </linearGradient>
          <radialGradient id="b" r="100%">
            <stop stop-color="#8A8A8A" offset="0" />
            <stop offset="1" />
          </radialGradient>
          <radialGradient
            id="e"
            r="100%"
            gradientTransform="translate(.5 .5) scale(.58621 1) rotate(90) translate(-.5 -.5)"
          >
            <stop stop-color="#fff" offset="0" />
            <stop stop-color="#E7E7E7" offset="1" />
          </radialGradient>
        </defs>
        <g fill="none" fill-rule="evenodd">
          <mask id="c" fill="white">
            <use xlink:href="#f" />
          </mask>
          <g
            fill="#1C8944"
            mask="url(#c)"
            stroke="#ADA216"
            stroke-dasharray="1,1"
            stroke-opacity=".53643"
            stroke-width="4"
          >
            <use mask="url(#g)" xlink:href="#d" />
          </g>
          <g fill="#D2CDC3" mask="url(#c)">
            <g transform="translate(10 34)">
              <rect y="25" width="17" height="18" />
              <rect x="298" width="17" height="18" />
            </g>
          </g>
          <g mask="url(#c)">
            <g transform="translate(6 27)">
              <rect x="298" y="1" width="26" height="147" stroke="#fff" stroke-width="2" />
              <rect x="1" y="25" width="25" height="102" stroke="#fff" stroke-width="2" />
              <text
                font-family="Arial-BoldItalicMT, Arial"
                font-size="14"
                font-style="italic"
                font-weight="bold"
              >
                <tspan x="28.4448242" y="45" fill="#FBFBFB">GND</tspan>
                <tspan x="28.1689453" y="69" fill="#FBFBFB">DT</tspan>
                <tspan x="27.2207031" y="94" fill="#FBFBFB">SCK</tspan>
                <tspan x="28.2207031" y="119" fill="#FBFBFB">VCC</tspan>
                <tspan x="274" y="45" fill="#FBFBFB">E-</tspan>
                <tspan x="274.492188" y="18" fill="#FBFBFB">E+</tspan>
                <tspan x="274.058594" y="117" fill="#FBFBFB">B-</tspan>
                <tspan x="274.050781" y="140" fill="#FBFBFB">B+</tspan>
                <tspan x="274.058594" y="69" fill="#FBFBFB">A-</tspan>
                <tspan x="274.050781" y="94" fill="#FBFBFB">A+</tspan>
                <tspan x="98.2929688" y="160" fill="#FBFBFB">Load Cell Amp</tspan>
                <tspan x="126.132812" y="140" fill="#FBFBFB">HX711</tspan>
              </text>
            </g>
          </g>
          <g mask="url(#c)">
            <g transform="translate(122 28)">
              <rect
                x="14.5"
                y=".5"
                width="36"
                height="98"
                fill="#434341"
                fill-rule="evenodd"
                stroke="#3B3939"
              />
              <rect x="51" y="2" width="14" height="6" fill="url(#a)" fill-rule="evenodd" />
              <rect x="51" y="15" width="14" height="6" fill="url(#a)" fill-rule="evenodd" />
              <rect x="51" y="27" width="14" height="6" fill="url(#a)" fill-rule="evenodd" />
              <rect x="51" y="40" width="14" height="6" fill="url(#a)" fill-rule="evenodd" />
              <rect x="51" y="52" width="14" height="6" fill="url(#a)" fill-rule="evenodd" />
              <rect x="51" y="65" width="14" height="6" fill="url(#a)" fill-rule="evenodd" />
              <rect x="51" y="77" width="14" height="6" fill="url(#a)" fill-rule="evenodd" />
              <rect x="51" y="90" width="14" height="6" fill="url(#a)" fill-rule="evenodd" />
              <rect
                transform="translate(7 5) scale(-1 1) translate(-7 -5)"
                y="2"
                width="14"
                height="6"
                fill="url(#a)"
                fill-rule="evenodd"
              />
              <rect
                transform="translate(7 18) scale(-1 1) translate(-7 -18)"
                y="15"
                width="14"
                height="6"
                fill="url(#a)"
                fill-rule="evenodd"
              />
              <rect
                transform="translate(7 31) scale(-1 1) translate(-7 -31)"
                y="28"
                width="14"
                height="6"
                fill="url(#a)"
                fill-rule="evenodd"
              />
              <rect
                transform="translate(7 43) scale(-1 1) translate(-7 -43)"
                y="40"
                width="14"
                height="6"
                fill="url(#a)"
                fill-rule="evenodd"
              />
              <rect
                transform="translate(7 56) scale(-1 1) translate(-7 -56)"
                y="53"
                width="14"
                height="6"
                fill="url(#a)"
                fill-rule="evenodd"
              />
              <rect
                transform="translate(7 68) scale(-1 1) translate(-7 -68)"
                y="65"
                width="14"
                height="6"
                fill="url(#a)"
                fill-rule="evenodd"
              />
              <rect
                transform="translate(7 80) scale(-1 1) translate(-7 -80)"
                y="77"
                width="14"
                height="6"
                fill="url(#a)"
                fill-rule="evenodd"
              />
              <rect
                transform="translate(7 93) scale(-1 1) translate(-7 -93)"
                y="90"
                width="14"
                height="6"
                fill="url(#a)"
                fill-rule="evenodd"
              />
              <circle
                cx="20"
                cy="5"
                r="3"
                fill="#211919"
                fill-opacity=".54978"
                fill-rule="evenodd"
                stroke="#000"
              />
              <text
                transform="translate(27 52) rotate(-90) translate(-27 -52)"
                fill="none"
                font-family="Arial-BoldItalicMT, Arial"
                font-size="12"
                font-style="italic"
                font-weight="bold"
              >
                <tspan x="9.09960938" y="56" fill="#BBBBBB">HX711</tspan>
              </text>
            </g>
          </g>
          
        </g>
      </svg>